<svg xmlns="http://www.w3.org/2000/svg" width="32" height="32" viewBox="0 0 32 32">
  <defs>
    <linearGradient id="grad1" x1="0%" y1="0%" x2="100%" y2="100%">
      <stop offset="0%" style="stop-color:#0d6efd;stop-opacity:1" />
      <stop offset="100%" style="stop-color:#0dcaf0;stop-opacity:1" />
    </linearGradient>
  </defs>
  
  <!-- Background Circle -->
  <circle cx="16" cy="16" r="15" fill="url(#grad1)" stroke="#ffffff" stroke-width="1"/>
  
  <!-- Folder Icon -->
  <path d="M6 10h20c1.1 0 2 .9 2 2v12c0 1.1-.9 2-2 2H6c-1.1 0-2-.9-2-2V8c0-1.1.9-2 2-2h8l2 2z" 
        fill="#ffffff" stroke="none"/>
  
  <!-- Document Lines -->
  <rect x="8" y="14" width="12" height="1.5" fill="url(#grad1)" rx="0.5"/>
  <rect x="8" y="17" width="10" height="1.5" fill="url(#grad1)" rx="0.5"/>
  <rect x="8" y="20" width="14" height="1.5" fill="url(#grad1)" rx="0.5"/>
  
  <!-- Sync Arrow -->
  <path d="M23 12l-2 2h1.5c0 2-1.5 3.5-3.5 3.5v1c2.5 0 4.5-2 4.5-4.5h1.5l-1.5-2z" 
        fill="#ffffff" stroke="none"/>
</svg>
